<?xml version="1.0" encoding="UTF-8"?><svg id="Layer_2" xmlns="http://www.w3.org/2000/svg" viewBox="0 0 355.93 78.76"><defs><style>.cls-1{fill:#fff;}</style></defs><g id="Layer_3"><g><g><path class="cls-1" d="M98.46,68.37c-4.52,0-8.08-.59-10.69-1.77-2.61-1.18-4.48-2.97-5.6-5.38-1.12-2.4-1.68-5.43-1.68-9.08V23.61h9.95v28.54c0,3.15,.74,5.3,2.21,6.44,1.47,1.14,3.97,1.71,7.49,1.71h12c3.52,0,6.02-.57,7.49-1.71,1.47-1.14,2.21-3.29,2.21-6.44V23.61h9.95v28.54c0,3.65-.56,6.67-1.68,9.08-1.12,2.4-2.98,4.2-5.6,5.38-2.61,1.18-6.18,1.77-10.69,1.77h-15.36Z"/><path class="cls-1" d="M145.78,68.06V23.61h9.02v12.43h18.9c3.65,0,6.31,.9,7.99,2.7,1.68,1.8,2.52,4.18,2.52,7.12v22.2h-9.01v-21.14c0-2.49-1.24-3.73-3.73-3.73h-16.66v24.87h-9.02Z"/><path class="cls-1" d="M213.36,68.06c-5.55,0-9.89-1.37-12.99-4.1-3.11-2.74-4.66-6.69-4.66-11.88s1.55-9.2,4.66-11.94,7.44-4.1,12.99-4.1h20.83v7.15h-20.83c-2.7,0-4.76,.74-6.19,2.21-1.43,1.47-2.15,3.7-2.15,6.68s.72,5.15,2.15,6.62c1.43,1.47,3.49,2.21,6.19,2.21h21.45v7.15h-21.45Zm13.99,0V23.61h9.02v44.45h-9.02Z"/><path class="cls-1" d="M257.94,68.06c-3.36,0-5.93-.85-7.71-2.55-1.78-1.7-2.67-4.12-2.67-7.27s.89-5.51,2.67-7.21c1.78-1.7,4.35-2.55,7.71-2.55h23.87v-1.49c0-2.53-1.24-3.79-3.73-3.79h-26.36v-7.15h28.72c3.77,0,6.44,.86,8.02,2.58,1.57,1.72,2.36,4.13,2.36,7.24v22.2h-32.89Zm1.62-7.15h22.26v-5.28h-22.26c-.79,0-1.4,.24-1.83,.71-.44,.48-.65,1.11-.65,1.9s.22,1.43,.65,1.93c.44,.5,1.05,.75,1.83,.75Z"/><path class="cls-1" d="M303.89,68.06V36.04h41.47c3.65,0,6.32,.9,8.02,2.7,1.7,1.8,2.55,4.18,2.55,7.12v22.2h-9.02v-21.08c0-2.53-1.29-3.79-3.86-3.79h-8.64v24.87h-9.02v-24.87h-12.5v24.87h-9.02Z"/></g><g><path class="cls-1" d="M55.52,23.42c-.08,10.62-.16,21.24-.24,31.86-.48,2.41-2.66,11.91-11.58,18.38-5.71,4.15-12.79,5.78-19.58,4.84-2.52-2.63-5.97-6.36-9-10.08-5.62-6.9-6.13-14.3-6.13-14.3V5.79h8.78V54.9c.02,.6,.3,4.89,3.89,7.44,3.2,2.26,9.1,2.28,12.34,0,3.59-2.55,3.87-6.84,3.9-7.44V5.79l17.62,17.63Z"/><polygon class="cls-1" points="59.96 12.76 49.29 7.81 38.61 2.86 65.73 8.11 59.96 12.76"/><path class="cls-1" d="M24.12,78.5c-4.31-.57-8.51-2.19-12.16-4.84C3.04,67.19,.86,57.69,.38,55.28,.26,38.79,.13,22.29,0,5.79H8.99V54.12s.51,7.4,6.13,14.3c3.03,3.72,6.48,7.45,9,10.08Z"/><polygon class="cls-1" points="38.61 2.86 43.48 0 65.73 8.11 38.61 2.86"/><polygon class="cls-1" points="61.01 59.64 66.68 54.36 66.68 10.23 60.73 15.03 61.01 59.64"/></g></g></g></svg>